<svg xmlns="http://www.w3.org/2000/svg" viewBox="0 0 360 96" role="img" aria-labelledby="title desc">
  <title id="title">Thirteen-stop route terminus</title>
  <desc id="desc">A double rail crosses thirteen station nodes and ends at a larger terminus seal.</desc>
  <g fill="none" stroke="#e0b64f">
    <path d="M18 42h322M18 50h322" stroke-width="2"/>
    <g fill="#0b100e" stroke-width="3">
      <circle cx="20" cy="46" r="6"/><circle cx="44" cy="46" r="6"/>
      <circle cx="68" cy="46" r="6"/><circle cx="92" cy="46" r="6"/>
      <circle cx="116" cy="46" r="6"/><circle cx="140" cy="46" r="6"/>
      <circle cx="164" cy="46" r="6"/><circle cx="188" cy="46" r="6"/>
      <circle cx="212" cy="46" r="6"/><circle cx="236" cy="46" r="6"/>
      <circle cx="260" cy="46" r="6"/><circle cx="284" cy="46" r="6"/>
      <circle cx="332" cy="46" r="20"/>
    </g>
  </g>
  <path d="m332 33 4 8 9 1-7 6 2 9-8-5-8 5 2-9-7-6 9-1z" fill="#f5efdf"/>
</svg>
